<?xml version="1.0" encoding="iso-8859-1"?>
<!-- Generator: Adobe Illustrator 21.0.2, SVG Export Plug-In . SVG Version: 6.00 Build 0)  -->
<svg version="1.1" id="Layer_1" xmlns="http://www.w3.org/2000/svg" xmlns:xlink="http://www.w3.org/1999/xlink" x="0px" y="0px"
	 viewBox="0 0 100.75 100.749" style="enable-background:new 0 0 100.75 100.749;" xml:space="preserve">
<g>
	<path d="M72.078,27.588C53.761,9.272,30.319,12.88,21.092,15.282c-2.957,0.769-5.275,3.083-6.052,6.039
		c-2.432,9.257-6.109,32.768,12.214,51.092C38.636,83.795,51.997,86.711,62.698,86.71c6.518,0,12.049-1.082,15.542-1.99
		c2.957-0.77,5.275-3.083,6.052-6.039C86.724,69.422,90.401,45.911,72.078,27.588z M17.941,22.082
		c0.501-1.907,1.998-3.401,3.905-3.897l0,0c3.317-0.863,8.573-1.893,14.762-1.893c0.036,0,0.073,0.002,0.109,0.002L16.008,37.003
		C16.013,30.75,17.062,25.43,17.941,22.082z M29.375,70.291c-9.244-9.244-12.517-19.927-13.215-29.197l24.637-24.637
		c9.25,0.718,19.916,4.008,29.16,13.251c9.244,9.244,12.517,19.927,13.215,29.198L58.536,83.542
		C49.285,82.825,38.619,79.535,29.375,70.291z M81.391,77.918c-0.501,1.907-1.998,3.4-3.906,3.896
		c-3.335,0.868-8.635,1.9-14.868,1.889l20.706-20.706C83.319,69.251,82.27,74.57,81.391,77.918z"/>
	<path d="M65.746,54.033c-0.586-0.586-1.535-0.586-2.121,0l-3.904,3.904l-4.534-4.534l3.97-3.97c0.586-0.585,0.586-1.535,0-2.121
		s-1.535-0.586-2.121,0l-3.97,3.97l-4.534-4.534l3.969-3.97c0.586-0.586,0.586-1.536,0-2.121c-0.586-0.586-1.535-0.586-2.121,0
		l-3.969,3.97l-4.534-4.534l3.97-3.969c0.586-0.585,0.586-1.535,0-2.121s-1.535-0.586-2.121,0l-3.97,3.969l-3.522-3.522
		c-0.586-0.586-1.535-0.586-2.121,0c-0.586,0.585-0.586,1.536,0,2.121l3.522,3.522l-3.837,3.837c-0.586,0.585-0.586,1.535,0,2.121
		c0.293,0.293,0.677,0.439,1.061,0.439s0.768-0.146,1.061-0.439l3.837-3.837l4.534,4.534l-3.837,3.837
		c-0.586,0.586-0.586,1.536,0,2.121c0.293,0.293,0.677,0.439,1.061,0.439s0.768-0.146,1.061-0.439l3.837-3.837l4.534,4.534
		L47.11,57.24c-0.586,0.586-0.586,1.535,0,2.121c0.293,0.293,0.677,0.439,1.061,0.439s0.768-0.146,1.061-0.439l3.837-3.837
		l4.534,4.534l-3.904,3.904c-0.586,0.586-0.586,1.535,0,2.121c0.293,0.293,0.677,0.439,1.061,0.439s0.768-0.146,1.061-0.439
		l3.904-3.904l3.849,3.849c0.293,0.293,0.677,0.439,1.061,0.439s0.768-0.146,1.061-0.439c0.586-0.586,0.586-1.535,0-2.121
		l-3.849-3.849l3.904-3.904C66.332,55.568,66.332,54.618,65.746,54.033z"/>
</g>
</svg>
