<?xml version="1.0" encoding="UTF-8"?><!-- Generator: Adobe Illustrator 23.0.1, SVG Export Plug-In . SVG Version: 6.00 Build 0)  --><svg xmlns="http://www.w3.org/2000/svg" enable-background="new 0 0 500 500" id="Layer_1" version="1.1" viewBox="0 0 500 500" x="0px" xml:space="preserve" y="0px">
<g id="change1_1"><path d="m348 189.5c0-9.2-3.6-17.8-10-24.2l-3.1-3.1c-13.4-13.4-35.1-13.4-48.5 0l-16 16-21.1-21.2c-3.9-3.9-10.2-3.9-14.1 0s-3.9 10.2 0 14.1l21.1 21.1-25.8 25.8-21.1-21.1c-3.9-3.9-10.2-3.9-14.1 0s-3.9 10.2 0 14.1l21.1 21.1-25.8 25.8-21.1-21.1c-3.9-3.9-10.2-3.9-14.1 0s-3.9 10.2 0 14.1l21.1 21.1-15.3 15.3c-13.4 13.4-13.4 35.1 0 48.5l3.1 3.1c6.5 6.5 15.1 10 24.2 10s17.8-3.6 24.2-10l15.3-15.3 21.1 21.1c1.9 1.9 4.5 2.9 7 2.9s5.1-1 7-2.9c3.9-3.9 3.9-10.2 0-14.1l-21.1-21.1 25.8-25.8 21.1 21.1c1.9 1.9 4.5 2.9 7 2.9s5.1-1 7-2.9c3.9-3.9 3.9-10.2 0-14.1l-21.1-21.1 25.8-25.8 21.1 21.1c1.9 1.9 4.5 2.9 7 2.9s5.1-1 7-2.9c3.9-3.9 3.9-10.2 0-14.1l-20.7-21.1 16-16c6.4-6.5 10-15.1 10-24.2zm-149.2 135.3c-2.7 2.7-6.3 4.2-10.2 4.2s-7.4-1.5-10.2-4.2l-3.1-3.1c-5.6-5.6-5.6-14.7 0-20.3l15.3-15.3 23.5 23.5-15.3 15.2zm29.4-29.4l-23.5-23.5 25.8-25.8 23.5 23.5-25.8 25.8zm39.8-39.9l-23.4-23.5 25.8-25.8 23.5 23.5-25.9 25.8zm55.9-55.9l-16 16-23.5-23.5 16-16c2.8-2.8 6.5-4.2 10.2-4.2s7.4 1.4 10.2 4.2l3.1 3.1c2.7 2.7 4.2 6.3 4.2 10.2s-1.5 7.5-4.2 10.2zm156-173.2c-1-2.9-3.3-5.2-6.2-6.2-56.5-19.3-116.8-24.1-175.6-14.2-0.2 0-0.4 0.1-0.7 0.1-5.9 1-11.8 2.1-17.7 3.4-66.2 14.7-126.7 48-174.9 96.2-48.1 48.2-81.4 108.7-96.1 175-1.3 6-2.5 12.1-3.5 18.2-0.1 0.3-0.1 0.5-0.1 0.8-9.8 58.5-4.9 118.6 14.3 174.9 1 2.9 3.3 5.2 6.2 6.2 37.4 12.8 76.5 19.2 115.8 19.2 7.9 0 15.8-0.3 23.7-0.8h0.1c18.2-1.2 36.3-3.8 54.2-7.8 66.2-14.7 126.7-48 174.9-96.2s81.5-108.7 96.2-174.9c1.3-5.8 2.4-11.7 3.4-17.6 0.1-0.3 0.1-0.5 0.1-0.8 10-58.7 5.2-119-14.1-175.5zm-443.3 437.1c-12-36.9-17.5-75.5-16.5-114.1 27.6 12.7 53.8 31 76.4 53.6 22.8 22.8 41.2 49.1 53.9 76.9-38.5 1.1-77-4.4-113.8-16.4zm135 15.2c-13.7-32.5-34.6-63.4-61-89.8-26.2-26.2-56.9-47.1-89.2-60.7 0.4-4.6 0.9-9.2 1.5-13.7 35.2 14.3 68.5 36.6 97 65.1 28.7 28.7 51.1 62.2 65.3 97.6-4.5 0.6-9 1.1-13.6 1.5zm299.5-262.7c-13.9 62.5-45.3 119.7-90.8 165.2s-102.6 76.9-165.2 90.8c-3.2 0.7-6.4 1.4-9.6 2-15.2-39.4-39.7-76.8-71.4-108.5-31.5-31.5-68.7-56-107.9-71.2 0.6-3.1 1.2-6.2 1.9-9.3 13.9-62.5 45.3-119.7 90.8-165.2 45.6-45.5 102.7-76.9 165.2-90.8 2.9-0.6 5.8-1.2 8.6-1.8 15.1 39.5 39.7 76.9 71.5 108.6 31.8 31.8 69.2 56.3 108.7 71.5l-1.8 8.7zm5.1-28.8c-35.5-14.2-69.1-36.7-97.9-65.4-28.8-28.8-51.2-62.4-65.4-97.9 4.6-0.6 9.1-1.1 13.7-1.6 13.7 32.6 34.7 63.6 61.1 90s57.4 47.4 90.1 61.1c-0.5 4.7-1 9.2-1.6 13.8zm2.8-34.9c-27.9-12.7-54.4-31.2-77.3-54-22.8-22.8-41.3-49.3-54-77.3 38.8-1.2 77.7 4.3 114.8 16.4 12.2 37.3 17.7 76.1 16.5 114.9z" fill="#fff"/></g>
</svg>